HIERARCHY
ROOT Hips
{
	OFFSET 0.000000 0.000000 0.000000
	CHANNELS 6 Xposition Yposition Zposition Zrotation Yrotation Xrotation 
	JOINT LHipJoint
	{
		OFFSET 0.000000 0.000000 0.000000
		CHANNELS 3 Zrotation Yrotation Xrotation
		JOINT LeftUpLeg
		{
			OFFSET 1.363060 -1.794630 0.839290
			CHANNELS 3 Zrotation Yrotation Xrotation
			JOINT LeftLeg
			{
				OFFSET 2.448110 -6.726130 0.000000
				CHANNELS 3 Zrotation Yrotation Xrotation
				JOINT LeftFoot
				{
					OFFSET 2.562200 -7.039590 0.000000
					CHANNELS 3 Zrotation Yrotation Xrotation
					JOINT LeftToeBase
					{
						OFFSET 0.157640 -0.433110 2.322550
						CHANNELS 3 Zrotation Yrotation Xrotation
						End Site
						{
							OFFSET 0.000000 0.000000 0.000000
						}
					}
				}
			}
		}
	}
	JOINT RHipJoint
	{
		OFFSET 0.000000 0.000000 0.000000
		CHANNELS 3 Zrotation Yrotation Xrotation
		JOINT RightUpLeg
		{
			OFFSET -1.305520 -1.794630 0.839290
			CHANNELS 3 Zrotation Yrotation Xrotation
			JOINT RightLeg
			{
				OFFSET -2.542530 -6.985550 0.000000
				CHANNELS 3 Zrotation Yrotation Xrotation
				JOINT RightFoot
				{
					OFFSET -2.568260 -7.056230 0.000000
					CHANNELS 3 Zrotation Yrotation Xrotation
					JOINT RightToeBase
					{
						OFFSET -0.164730 -0.452590 2.363150
						CHANNELS 3 Zrotation Yrotation Xrotation
						End Site
						{
							OFFSET 0.000000 0.000000 0.000000
						}
					}
				}
			}
		}
	}
}
MOTION
Frames: 16
Frame Time: 0.008333
-3.366205 16.757092 -1.572075 31.862153 80.898441 28.097714 -11.041588 4.707872 -2.235691 -0.480363 24.138595 4.872407 -1.116479 1.940301 31.153891 0.530051 2.557285 1.785047 0.309000 -0.000000 -74.726200 8.686751 -0.373064 -0.644784 17.795585 -16.161822 -22.887049 1.525837 0.994878 8.997560 -6.680741 -26.366417 -19.879976 -175.787700 0.000000 -10.915300
-3.230430 16.756814 -1.512957 31.581807 80.639232 27.601445 -11.128568 4.778663 -2.220061 0.194667 24.231335 4.622437 -0.967059 2.074565 32.737521 0.482369 1.580089 3.673421 0.204800 0.000000 -77.340700 8.704822 -0.426529 -0.704621 17.665867 -16.319452 -22.369198 1.527599 0.916266 9.581726 -6.595300 -26.071731 -19.911387 -175.790100 -0.000000 -11.600300
-3.095749 16.758349 -1.452774 31.104327 80.356981 26.915908 -11.230239 4.840073 -2.191773 0.886120 24.269991 4.262429 -0.801945 2.205789 34.430848 0.459315 0.521698 5.807977 0.014401 -0.000000 -79.813600 8.713385 -0.488904 -0.776066 17.575200 -16.534851 -21.926803 1.547973 0.826929 10.247554 -6.465601 -25.600040 -19.848770 -175.865600 0.000000 -12.105500
-2.962888 16.761348 -1.391718 30.441979 80.036243 26.059265 -11.341705 4.889421 -2.151706 1.565298 24.243886 3.799281 -0.625668 2.329780 36.207880 0.467790 -0.607813 8.196648 -0.283200 0.000000 -82.000400 8.714422 -0.556925 -0.856185 17.517832 -16.787485 -21.562082 1.583225 0.728286 10.990678 -6.299541 -24.976749 -19.718712 -175.994300 -0.000000 -12.451901
-2.832506 16.765434 -1.329976 29.620574 79.661942 25.061829 -11.457683 4.924331 -2.101739 2.205358 24.147502 3.245101 -0.445922 2.442441 38.038962 0.511950 -1.802978 10.825904 -0.708800 -0.000000 -83.743100 8.710528 -0.627111 -0.942524 17.486148 -17.057966 -21.269561 1.629207 0.622318 11.801267 -6.105638 -24.230778 -19.549349 -176.155299 -0.000000 -12.658301
-2.705173 16.770108 -1.267738 28.680235 79.222109 23.967744 -11.572272 4.942636 -2.044535 2.780670 23.979443 2.612600 -0.272915 2.540380 39.894686 0.591807 -3.054241 13.646964 -1.276200 0.000001 -84.870400 8.704690 -0.695898 -1.030627 17.470938 -17.317683 -21.036074 1.680612 0.511912 12.662133 -5.895308 -23.403675 -19.370745 -176.326701 0.000000 -12.757800
-2.581333 16.774938 -1.205121 27.669116 78.709228 22.828308 -11.679793 4.943278 -1.983571 3.270877 23.743589 1.915549 -0.117507 2.622083 41.748618 0.702029 -4.342937 16.574591 -1.984501 -0.000000 -85.168400 8.699702 -0.760100 -1.115680 17.462953 -17.537887 -20.842984 1.732232 0.400639 13.549715 -5.680575 -22.540307 -19.211297 -176.489300 0.000000 -12.787100
-2.461210 16.779497 -1.142230 26.638545 78.121564 21.696080 -11.775449 4.926581 -1.923035 3.662794 23.450211 1.165459 0.011543 2.688604 43.579527 0.832255 -5.634033 19.492576 -2.810000 -0.000000 -84.533700 8.697787 -0.817389 -1.193095 17.454292 -17.693596 -20.667876 1.779577 0.292321 14.436726 -5.472891 -21.684462 -19.095579 -176.628500 0.000000 -12.785000
-2.344953 16.783474 -1.079089 25.635431 77.463922 20.617504 -11.855868 4.894247 -1.867442 3.951124 23.113757 0.370764 0.110286 2.743670 45.372862 0.969102 -6.868778 22.263539 -3.699800 -0.000000 -82.885500 8.700265 -0.866318 -1.258874 17.439100 -17.765359 -20.488280 1.819281 0.190666 15.294746 -5.282248 -20.875433 -19.042506 -176.734300 0.000000 -12.788500
-2.232510 16.786652 -1.015727 24.694020 76.745709 19.624753 -11.919592 4.848946 -1.820991 4.138075 22.752248 -0.462971 0.180901 2.792537 47.117303 1.099900 -7.963768 24.754557 -4.572800 0.000000 -80.353800 8.707495 -0.906447 -1.310436 17.413785 -17.743216 -20.283773 1.849535 0.098756 16.098199 -5.115716 -20.142013 -19.064181 -176.801400 0.000000 -12.829800
-2.123757 16.788997 -0.952041 23.835294 75.981191 18.737060 -11.966962 4.793525 -1.786767 4.231646 22.381691 -1.338312 0.230929 2.841299 48.815717 1.214425 -8.824279 26.835501 -5.329300 0.000000 -76.855700 8.718692 -0.938068 -1.344829 17.378186 -17.618551 -20.036989 1.869263 0.019535 16.821101 -4.978993 -19.509215 -19.164532 -176.828500 -0.000000 -12.934200
-2.018455 16.790505 -0.888017 23.066914 75.185159 17.958246 -11.999695 4.729977 -1.765938 4.242727 22.014926 -2.252563 0.270485 2.893435 50.453953 1.309507 -9.347663 28.440269 -5.870000 -0.000000 -72.944000 8.732827 -0.961898 -1.363174 17.333741 -17.400867 -19.738034 1.879406 -0.045818 17.449385 -4.872478 -18.981137 -19.340701 -176.818101 -0.000000 -13.117000
-1.916349 16.791369 -0.823555 22.388663 74.373635 17.285700 -12.019983 4.659427 -1.757538 4.182399 21.656107 -3.206183 0.309277 2.950773 52.024651 1.385844 -9.452587 29.531191 -6.115201 0.000000 -68.968400 8.748557 -0.978786 -1.366413 17.283635 -17.099742 -19.382320 1.881150 -0.096579 17.971860 -4.795078 -18.556870 -19.582588 -176.774700 0.000000 -13.383300
-1.817134 16.791831 -0.758550 21.788173 73.561047 16.705675 -12.030316 4.582388 -1.759208 4.063586 21.304855 -4.201466 0.354504 3.013750 53.524278 1.446132 -9.095659 30.092142 -6.021500 -0.000000 -65.056401 8.764122 -0.989895 -1.355601 17.233725 -16.726004 -18.970663 1.876015 -0.132737 18.383216 -4.744058 -18.229379 -19.874583 -176.705100 0.000000 -13.728100
-1.720604 16.792188 -0.692958 21.253689 72.759164 16.204656 -12.032487 4.498588 -1.767161 3.896288 20.953768 -5.233656 0.409602 3.080433 54.935769 1.495543 -8.267243 30.153632 -5.588200 -0.000000 -61.593600 8.778445 -0.996173 -1.333508 17.188612 -16.296331 -18.508724 1.866028 -0.155320 18.685362 -4.714039 -17.980842 -20.197550 -176.617400 0.000000 -14.135401
-1.626521 16.792730 -0.626732 20.768432 71.976219 15.765018 -12.027991 4.407915 -1.777694 3.692701 20.595643 -6.298371 0.474692 3.148891 56.247101 1.537960 -7.003743 29.746219 -4.855900 -0.000001 -58.595800 8.790322 -0.998719 -1.302206 17.154201 -15.824586 -18.005291 1.853051 -0.165710 18.884324 -4.699491 -17.792700 -20.531268 -176.520700 0.000001 -14.582200
